<?xml version="1.0" encoding="iso-8859-1"?><!DOCTYPE svg PUBLIC "-//W3C//DTD SVG 1.1//EN" "http://www.w3.org/Graphics/SVG/1.1/DTD/svg11.dtd"><svg version="1.1" xmlns="http://www.w3.org/2000/svg" xmlns:xlink="http://www.w3.org/1999/xlink" x="0px" y="0px" width="992" height="620" viewBox="0 0 992 620" enable-background="new 0 0 992 620" xml:space="preserve"><g><polygon points="500,316 519,311 509,277" style="fill:#9C9183;stroke:#9C9183;"/><polygon points="509,277 480,292 500,316" style="fill:#95897C;stroke:#95897C;"/><polygon points="519,311 537,284 509,277" style="fill:#968B7C;stroke:#968B7C;"/><polygon points="509,277 469,274 480,292" style="fill:#897C6D;stroke:#897C6D;"/><polygon points="519,311 542,321 537,284" style="fill:#998E80;stroke:#998E80;"/><polygon points="498,355 542,321 519,311" style="fill:#A79B8C;stroke:#A79B8C;"/><polygon points="480,292 478,333 500,316" style="fill:#AA9C8C;stroke:#AA9C8C;"/><polygon points="500,316 498,355 519,311" style="fill:#9F9485;stroke:#9F9485;"/><polygon points="448,317 478,333 480,292" style="fill:#B59C84;stroke:#B59C84;"/><polygon points="537,284 521,253 509,277" style="fill:#6D6255;stroke:#6D6255;"/><polygon points="509,277 498,226 469,274" style="fill:#837567;stroke:#837567;"/><polygon points="498,226 457,246 469,274" style="fill:#9D8A77;stroke:#9D8A77;"/><polygon points="537,284 532,248 521,253" style="fill:#615649;stroke:#615649;"/><polygon points="478,333 498,355 500,316" style="fill:#998D80;stroke:#998D80;"/><polygon points="435,300 448,317 480,292" style="fill:#CFB69F;stroke:#CFB69F;"/><polygon points="478,333 463,384 498,355" style="fill:#9B8E81;stroke:#9B8E81;"/><polygon points="542,321 568,277 537,284" style="fill:#A79B8C;stroke:#A79B8C;"/><polygon points="537,284 568,277 532,248" style="fill:#85796C;stroke:#85796C;"/><polygon points="524,368 550,340 542,321" style="fill:#A39787;stroke:#A39787;"/><polygon points="585,309 568,277 542,321" style="fill:#B8A999;stroke:#B8A999;"/><polygon points="498,226 509,277 521,253" style="fill:#938879;stroke:#938879;"/><polygon points="469,274 435,300 480,292" style="fill:#C4AD98;stroke:#C4AD98;"/><polygon points="413,270 435,300 469,274" style="fill:#D9A273;stroke:#D9A273;"/><polygon points="518,217 498,226 521,253" style="fill:#9D8D7E;stroke:#9D8D7E;"/><polygon points="498,355 524,368 542,321" style="fill:#A39888;stroke:#A39888;"/><polygon points="448,317 439,333 478,333" style="fill:#BA8E66;stroke:#BA8E66;"/><polygon points="507,398 526,387 524,368" style="fill:#867564;stroke:#867564;"/><polygon points="435,300 439,333 448,317" style="fill:#C49974;stroke:#C49974;"/><polygon points="498,226 488,221 457,246" style="fill:#85735F;stroke:#85735F;"/><polygon points="532,248 518,217 521,253" style="fill:#4A4440;stroke:#4A4440;"/><polygon points="498,226 506,193 488,221" style="fill:#CB9F80;stroke:#CB9F80;"/><polygon points="568,277 555,234 532,248" style="fill:#796E62;stroke:#796E62;"/><polygon points="533,216 518,217 532,248" style="fill:#C7B5A1;stroke:#C7B5A1;"/><polygon points="550,340 585,309 542,321" style="fill:#BCAE9D;stroke:#BCAE9D;"/><polygon points="568,277 587,265 555,234" style="fill:#A08F7F;stroke:#A08F7F;"/><polygon points="589,352 585,309 550,340" style="fill:#D1BBA5;stroke:#D1BBA5;"/><polygon points="555,234 533,216 532,248" style="fill:#D6C1B0;stroke:#D6C1B0;"/><polygon points="607,288 587,265 568,277" style="fill:#DBBB9E;stroke:#DBBB9E;"/><polygon points="439,333 441,358 478,333" style="fill:#C1966D;stroke:#C1966D;"/><polygon points="410,344 441,358 439,333" style="fill:#BA8253;stroke:#BA8253;"/><polygon points="524,368 578,380 550,340" style="fill:#847767;stroke:#847767;"/><polygon points="507,398 524,368 498,355" style="fill:#584A3B;stroke:#584A3B;"/><polygon points="555,234 566,223 533,216" style="fill:#C2AD9E;stroke:#C2AD9E;"/><polygon points="596,238 566,223 555,234" style="fill:#826E57;stroke:#826E57;"/><polygon points="457,246 413,270 469,274" style="fill:#D9A578;stroke:#D9A578;"/><polygon points="435,300 410,344 439,333" style="fill:#CB8D58;stroke:#CB8D58;"/><polygon points="418,224 413,270 457,246" style="fill:#EBB176;stroke:#EBB176;"/><polygon points="441,358 463,384 478,333" style="fill:#C1A68F;stroke:#C1A68F;"/><polygon points="578,380 589,352 550,340" style="fill:#CCBCAB;stroke:#CCBCAB;"/><polygon points="585,309 607,288 568,277" style="fill:#DAC1AA;stroke:#DAC1AA;"/><polygon points="463,384 507,398 498,355" style="fill:#6E5E4E;stroke:#6E5E4E;"/><polygon points="526,387 547,399 524,368" style="fill:#806F5E;stroke:#806F5E;"/><polygon points="609,324 607,288 585,309" style="fill:#F0D9BB;stroke:#F0D9BB;"/><polygon points="587,265 596,238 555,234" style="fill:#BBA590;stroke:#BBA590;"/><polygon points="488,221 480,197 457,246" style="fill:#AE977D;stroke:#AE977D;"/><polygon points="506,193 480,197 488,221" style="fill:#C2906C;stroke:#C2906C;"/><polygon points="506,193 498,226 518,217" style="fill:#E3B793;stroke:#E3B793;"/><polygon points="506,193 518,217 533,216" style="fill:#F3CDA8;stroke:#F3CDA8;"/><polygon points="542,187 506,193 533,216" style="fill:#E0AD86;stroke:#E0AD86;"/><polygon points="387,314 410,344 435,300" style="fill:#D9945C;stroke:#D9945C;"/><polygon points="441,358 446,411 463,384" style="fill:#BA9170;stroke:#BA9170;"/><polygon points="589,352 609,324 585,309" style="fill:#DDC49D;stroke:#DDC49D;"/><polygon points="608,257 596,238 587,265" style="fill:#F8DCBB;stroke:#F8DCBB;"/><polygon points="607,288 608,257 587,265" style="fill:#F6D5AB;stroke:#F6D5AB;"/><polygon points="646,306 608,257 607,288" style="fill:#ADA46E;stroke:#ADA46E;"/><polygon points="529,417 547,399 526,387" style="fill:#563D2B;stroke:#563D2B;"/><polygon points="547,399 578,380 524,368" style="fill:#715940;stroke:#715940;"/><polygon points="673,356 646,306 609,324" style="fill:#9F9E66;stroke:#9F9E66;"/><polygon points="429,188 418,224 457,246" style="fill:#EEC692;stroke:#EEC692;"/><polygon points="566,223 542,187 533,216" style="fill:#CB9F81;stroke:#CB9F81;"/><polygon points="506,193 505,164 480,197" style="fill:#9A6440;stroke:#9A6440;"/><polygon points="585,188 542,187 566,223" style="fill:#BC9475;stroke:#BC9475;"/><polygon points="413,270 386,297 435,300" style="fill:#F3BB7E;stroke:#F3BB7E;"/><polygon points="368,257 386,297 413,270" style="fill:#AFA367;stroke:#AFA367;"/><polygon points="386,297 387,314 435,300" style="fill:#F2BE82;stroke:#F2BE82;"/><polygon points="507,398 529,417 526,387" style="fill:#735C4A;stroke:#735C4A;"/><polygon points="463,384 484,416 507,398" style="fill:#6E5640;stroke:#6E5640;"/><polygon points="446,411 484,416 463,384" style="fill:#875733;stroke:#875733;"/><polygon points="508,430 529,417 507,398" style="fill:#5E3C25;stroke:#5E3C25;"/><polygon points="547,399 566,420 578,380" style="fill:#B2865C;stroke:#B2865C;"/><polygon points="596,238 596,209 566,223" style="fill:#BFA689;stroke:#BFA689;"/><polygon points="612,222 596,209 596,238" style="fill:#F8E0B9;stroke:#F8E0B9;"/><polygon points="542,187 529,171 506,193" style="fill:#CF966A;stroke:#CF966A;"/><polygon points="480,197 429,188 457,246" style="fill:#D7B28B;stroke:#D7B28B;"/><polygon points="560,148 529,171 542,187" style="fill:#DCB38F;stroke:#DCB38F;"/><polygon points="410,400 446,411 441,358" style="fill:#A66E42;stroke:#A66E42;"/><polygon points="396,373 441,358 410,344" style="fill:#C1834F;stroke:#C1834F;"/><polygon points="657,216 612,222 608,257" style="fill:#909761;stroke:#909761;"/><polygon points="608,257 612,222 596,238" style="fill:#F3DDB5;stroke:#F3DDB5;"/><polygon points="418,224 368,257 413,270" style="fill:#9C955D;stroke:#9C955D;"/><polygon points="449,172 429,188 480,197" style="fill:#E0BA8E;stroke:#E0BA8E;"/><polygon points="529,171 505,164 506,193" style="fill:#D6A176;stroke:#D6A176;"/><polygon points="365,357 396,373 410,344" style="fill:#CE8D55;stroke:#CE8D55;"/><polygon points="484,416 508,430 507,398" style="fill:#544130;stroke:#544130;"/><polygon points="493,456 508,430 484,416" style="fill:#513525;stroke:#513525;"/><polygon points="615,184 585,188 596,209" style="fill:#E7C59A;stroke:#E7C59A;"/><polygon points="596,209 585,188 566,223" style="fill:#C0A184;stroke:#C0A184;"/><polygon points="529,417 543,427 547,399" style="fill:#5B3720;stroke:#5B3720;"/><polygon points="529,442 543,427 529,417" style="fill:#603519;stroke:#603519;"/><polygon points="487,153 449,172 480,197" style="fill:#D1A57F;stroke:#D1A57F;"/><polygon points="446,411 444,441 484,416" style="fill:#814F2E;stroke:#814F2E;"/><polygon points="410,400 440,417 446,411" style="fill:#8F5833;stroke:#8F5833;"/><polygon points="543,427 566,420 547,399" style="fill:#855B3B;stroke:#855B3B;"/><polygon points="673,356 609,324 589,352" style="fill:#A1A16D;stroke:#A1A16D;"/><polygon points="396,373 410,400 441,358" style="fill:#B87744;stroke:#B87744;"/><polygon points="609,324 646,306 607,288" style="fill:#B6AC7F;stroke:#B6AC7F;"/><polygon points="673,356 589,352 578,380" style="fill:#B2AB80;stroke:#B2AB80;"/><polygon points="396,168 368,257 418,224" style="fill:#797E49;stroke:#797E49;"/><polygon points="386,297 360,319 387,314" style="fill:#F8CA8C;stroke:#F8CA8C;"/><polygon points="387,314 365,357 410,344" style="fill:#E9AB71;stroke:#E9AB71;"/><polygon points="505,164 487,153 480,197" style="fill:#CA9F7E;stroke:#CA9F7E;"/><polygon points="506,143 487,153 505,164" style="fill:#EFCBA7;stroke:#EFCBA7;"/><polygon points="506,143 505,164 529,171" style="fill:#EEC8A0;stroke:#EEC8A0;"/><polygon points="368,257 360,319 386,297" style="fill:#B3A56A;stroke:#B3A56A;"/><polygon points="396,373 376,395 410,400" style="fill:#B8703B;stroke:#B8703B;"/><polygon points="543,427 556,454 566,420" style="fill:#856044;stroke:#856044;"/><polygon points="508,430 529,442 529,417" style="fill:#592509;stroke:#592509;"/><polygon points="493,456 529,442 508,430" style="fill:#532816;stroke:#532816;"/><polygon points="360,319 365,357 387,314" style="fill:#F8BF83;stroke:#F8BF83;"/><polygon points="487,153 468,144 449,172" style="fill:#E1BE98;stroke:#E1BE98;"/><polygon points="535,138 506,143 529,171" style="fill:#F2D4AA;stroke:#F2D4AA;"/><polygon points="440,417 444,441 446,411" style="fill:#875637;stroke:#875637;"/><polygon points="410,449 444,441 440,417" style="fill:#4F2317;stroke:#4F2317;"/><polygon points="392,420 440,417 410,400" style="fill:#803F18;stroke:#803F18;"/><polygon points="449,172 414,164 429,188" style="fill:#595D36;stroke:#595D36;"/><polygon points="504,127 468,144 487,153" style="fill:#ECC8A0;stroke:#ECC8A0;"/><polygon points="612,222 615,184 596,209" style="fill:#E2C995;stroke:#E2C995;"/><polygon points="585,188 560,148 542,187" style="fill:#B18666;stroke:#B18666;"/><polygon points="657,216 615,184 612,222" style="fill:#7F8856;stroke:#7F8856;"/><polygon points="603,157 560,148 585,188" style="fill:#E6C29B;stroke:#E6C29B;"/><polygon points="444,441 493,456 484,416" style="fill:#714C34;stroke:#714C34;"/><polygon points="468,144 440,150 449,172" style="fill:#C89A6B;stroke:#C89A6B;"/><polygon points="429,188 396,168 418,224" style="fill:#686C3D;stroke:#686C3D;"/><polygon points="440,150 414,164 449,172" style="fill:#3E4524;stroke:#3E4524;"/><polygon points="560,148 535,138 529,171" style="fill:#EBCBA8;stroke:#EBCBA8;"/><polygon points="506,143 504,127 487,153" style="fill:#F2D3A9;stroke:#F2D3A9;"/><polygon points="365,357 376,395 396,373" style="fill:#CB844B;stroke:#CB844B;"/><polygon points="529,442 556,454 543,427" style="fill:#775035;stroke:#775035;"/><polygon points="653,454 673,356 578,380" style="fill:#8F985D;stroke:#8F985D;"/><polygon points="541,469 556,454 529,442" style="fill:#805B42;stroke:#805B42;"/><polygon points="376,395 392,420 410,400" style="fill:#9D5323;stroke:#9D5323;"/><polygon points="414,164 396,168 429,188" style="fill:#22340F;stroke:#22340F;"/><polygon points="431,126 396,168 414,164" style="fill:#071502;stroke:#071502;"/><polygon points="535,138 504,127 506,143" style="fill:#F7E5BA;stroke:#F7E5BA;"/><polygon points="468,144 453,126 440,150" style="fill:#8C6244;stroke:#8C6244;"/><polygon points="560,148 558,120 535,138" style="fill:#DDB489;stroke:#DDB489;"/><polygon points="534,113 501,118 504,127" style="fill:#FAEDBC;stroke:#FAEDBC;"/><polygon points="615,184 603,157 585,188" style="fill:#D7C49C;stroke:#D7C49C;"/><polygon points="615,184 632,147 603,157" style="fill:#253612;stroke:#253612;"/><polygon points="694,266 657,216 608,257" style="fill:#8A915B;stroke:#8A915B;"/><polygon points="365,357 340,384 376,395" style="fill:#E09C61;stroke:#E09C61;"/><polygon points="376,395 365,412 392,420" style="fill:#A65523;stroke:#A65523;"/><polygon points="360,319 340,355 365,357" style="fill:#F6CD92;stroke:#F6CD92;"/><polygon points="308,319 340,355 360,319" style="fill:#B1AB76;stroke:#B1AB76;"/><polygon points="368,257 333,261 360,319" style="fill:#9D9E66;stroke:#9D9E66;"/><polygon points="330,171 333,261 368,257" style="fill:#7A834C;stroke:#7A834C;"/><polygon points="493,456 541,469 529,442" style="fill:#8A6752;stroke:#8A6752;"/><polygon points="573,465 566,420 556,454" style="fill:#8F7460;stroke:#8F7460;"/><polygon points="653,454 578,380 566,420" style="fill:#9B9961;stroke:#9B9961;"/><polygon points="646,306 694,266 608,257" style="fill:#969861;stroke:#969861;"/><polygon points="440,150 431,126 414,164" style="fill:#1D250F;stroke:#1D250F;"/><polygon points="471,113 453,126 468,144" style="fill:#8D6B53;stroke:#8D6B53;"/><polygon points="504,127 471,113 468,144" style="fill:#B8895E;stroke:#B8895E;"/><polygon points="534,113 504,127 535,138" style="fill:#FAEBBC;stroke:#FAEBBC;"/><polygon points="399,459 410,449 392,420" style="fill:#682609;stroke:#682609;"/><polygon points="392,420 410,449 440,417" style="fill:#5C210A;stroke:#5C210A;"/><polygon points="444,441 450,482 493,456" style="fill:#5E3E2D;stroke:#5E3E2D;"/><polygon points="542,491 552,475 541,469" style="fill:#755C3F;stroke:#755C3F;"/><polygon points="340,384 365,412 376,395" style="fill:#D1874D;stroke:#D1874D;"/><polygon points="552,475 573,465 556,454" style="fill:#3E332E;stroke:#3E332E;"/><polygon points="582,123 558,120 560,148" style="fill:#A67E5A;stroke:#A67E5A;"/><polygon points="541,469 552,475 556,454" style="fill:#765B49;stroke:#765B49;"/><polygon points="484,490 541,469 493,456" style="fill:#7E5E4E;stroke:#7E5E4E;"/><polygon points="558,120 534,113 535,138" style="fill:#F1D6A9;stroke:#F1D6A9;"/><polygon points="453,126 431,126 440,150" style="fill:#AA896C;stroke:#AA896C;"/><polygon points="452,104 431,126 453,126" style="fill:#876E5A;stroke:#876E5A;"/><polygon points="471,113 504,127 501,118" style="fill:#E4C495;stroke:#E4C495;"/><polygon points="340,355 340,384 365,357" style="fill:#F8C186;stroke:#F8C186;"/><polygon points="320,372 340,384 340,355" style="fill:#F9CE95;stroke:#F9CE95;"/><polygon points="483,103 471,113 501,118" style="fill:#D8B68D;stroke:#D8B68D;"/><polygon points="410,449 423,467 444,441" style="fill:#4E1F10;stroke:#4E1F10;"/><polygon points="399,459 423,467 410,449" style="fill:#4B1606;stroke:#4B1606;"/><polygon points="365,412 368,428 392,420" style="fill:#9D4918;stroke:#9D4918;"/><polygon points="348,442 368,428 365,412" style="fill:#A65E2F;stroke:#A65E2F;"/><polygon points="603,157 582,123 560,148" style="fill:#9F7858;stroke:#9F7858;"/><polygon points="532,97 511,97 534,113" style="fill:#F0E8C2;stroke:#F0E8C2;"/><polygon points="601,121 582,123 603,157" style="fill:#886950;stroke:#886950;"/><polygon points="697,313 694,266 646,306" style="fill:#A3A26E;stroke:#A3A26E;"/><polygon points="673,356 697,313 646,306" style="fill:#9D9C63;stroke:#9D9C63;"/><polygon points="423,467 450,482 444,441" style="fill:#784D3A;stroke:#784D3A;"/><polygon points="368,428 399,459 392,420" style="fill:#79310D;stroke:#79310D;"/><polygon points="423,467 417,496 450,482" style="fill:#523128;stroke:#523128;"/><polygon points="450,482 484,490 493,456" style="fill:#4A3730;stroke:#4A3730;"/><polygon points="471,113 452,104 453,126" style="fill:#AB927B;stroke:#AB927B;"/><polygon points="511,97 483,103 501,118" style="fill:#F9F1C6;stroke:#F9F1C6;"/><polygon points="673,194 615,184 657,216" style="fill:#64733F;stroke:#64733F;"/><polygon points="673,194 632,147 615,184" style="fill:#3C4D23;stroke:#3C4D23;"/><polygon points="694,266 673,194 657,216" style="fill:#8B925F;stroke:#8B925F;"/><polygon points="552,475 563,502 573,465" style="fill:#2D2626;stroke:#2D2626;"/><polygon points="484,490 542,491 541,469" style="fill:#A78A72;stroke:#A78A72;"/><polygon points="333,261 308,319 360,319" style="fill:#A4A16D;stroke:#A4A16D;"/><polygon points="532,97 534,113 561,94" style="fill:#EFE2BB;stroke:#EFE2BB;"/><polygon points="534,113 511,97 501,118" style="fill:#FCF7CA;stroke:#FCF7CA;"/><polygon points="467,83 471,113 483,103" style="fill:#C8A884;stroke:#C8A884;"/><polygon points="467,83 452,104 471,113" style="fill:#B49779;stroke:#B49779;"/><polygon points="348,442 365,452 368,428" style="fill:#95674E;stroke:#95674E;"/><polygon points="308,319 320,372 340,355" style="fill:#BEAE7B;stroke:#BEAE7B;"/><polygon points="561,94 534,113 558,120" style="fill:#F1DBB2;stroke:#F1DBB2;"/><polygon points="611,124 601,121 603,157" style="fill:#CEAF8F;stroke:#CEAF8F;"/><polygon points="561,94 558,120 586,98" style="fill:#B4916F;stroke:#B4916F;"/><polygon points="586,98 558,120 582,123" style="fill:#AF9276;stroke:#AF9276;"/><polygon points="632,147 611,124 603,157" style="fill:#202716;stroke:#202716;"/><polygon points="368,428 365,452 399,459" style="fill:#7D3F1C;stroke:#7D3F1C;"/><polygon points="399,459 417,496 423,467" style="fill:#4D1F11;stroke:#4D1F11;"/><polygon points="326,421 365,412 340,384" style="fill:#E1995D;stroke:#E1995D;"/><polygon points="320,372 318,392 340,384" style="fill:#F9C992;stroke:#F9C992;"/><polygon points="298,433 318,392 233,356" style="fill:#A4A268;stroke:#A4A268;"/><polygon points="449,45 467,83 511,34" style="fill:#000000;stroke:#000000;"/><polygon points="586,98 582,123 601,121" style="fill:#937E6A;stroke:#937E6A;"/><polygon points="542,491 563,502 552,475" style="fill:#49382C;stroke:#49382C;"/><polygon points="573,465 653,454 566,420" style="fill:#A3996A;stroke:#A3996A;"/><polygon points="546,513 563,502 542,491" style="fill:#5D4B36;stroke:#5D4B36;"/><polygon points="326,421 348,442 365,412" style="fill:#B5784A;stroke:#B5784A;"/><polygon points="605,96 586,98 601,121" style="fill:#5E4C3E;stroke:#5E4C3E;"/><polygon points="396,168 330,171 368,257" style="fill:#536032;stroke:#536032;"/><polygon points="333,261 257,288 308,319" style="fill:#9E9C68;stroke:#9E9C68;"/><polygon points="369,106 330,171 396,168" style="fill:#0B1604;stroke:#0B1604;"/><polygon points="369,106 396,168 431,126" style="fill:#020801;stroke:#020801;"/><polygon points="656,512 653,454 573,465" style="fill:#919658;stroke:#919658;"/><polygon points="673,356 713,393 697,313" style="fill:#9F9C69;stroke:#9F9C69;"/><polygon points="511,97 467,83 483,103" style="fill:#7B6A53;stroke:#7B6A53;"/><polygon points="452,104 425,94 431,126" style="fill:#8F7862;stroke:#8F7862;"/><polygon points="467,83 511,97 511,34" style="fill:#070504;stroke:#070504;"/><polygon points="455,524 484,490 450,482" style="fill:#3C261F;stroke:#3C261F;"/><polygon points="539,524 532,512 526,533" style="fill:#BDA571;stroke:#BDA571;"/><polygon points="484,490 532,512 542,491" style="fill:#A48469;stroke:#A48469;"/><polygon points="365,452 380,475 399,459" style="fill:#693A24;stroke:#693A24;"/><polygon points="331,473 380,475 365,452" style="fill:#9F8577;stroke:#9F8577;"/><polygon points="430,66 425,94 452,104" style="fill:#998068;stroke:#998068;"/><polygon points="380,475 417,496 399,459" style="fill:#40170C;stroke:#40170C;"/><polygon points="318,392 326,421 340,384" style="fill:#F8BE86;stroke:#F8BE86;"/><polygon points="352,504 388,515 380,475" style="fill:#6D5549;stroke:#6D5549;"/><polygon points="673,194 676,161 632,147" style="fill:#2D4019;stroke:#2D4019;"/><polygon points="618,91 605,96 611,124" style="fill:#B49C81;stroke:#B49C81;"/><polygon points="611,124 605,96 601,121" style="fill:#997E66;stroke:#997E66;"/><polygon points="738,164 676,161 673,194" style="fill:#374921;stroke:#374921;"/><polygon points="532,512 546,513 542,491" style="fill:#9E995E;stroke:#9E995E;"/><polygon points="563,502 578,515 573,465" style="fill:#5E5442;stroke:#5E5442;"/><polygon points="618,91 611,124 632,147" style="fill:#090907;stroke:#090907;"/><polygon points="586,98 587,79 561,94" style="fill:#CCAF8E;stroke:#CCAF8E;"/><polygon points="561,94 511,34 532,97" style="fill:#17120E;stroke:#17120E;"/><polygon points="417,496 435,513 450,482" style="fill:#49241A;stroke:#49241A;"/><polygon points="532,512 539,524 546,513" style="fill:#9E9A5B;stroke:#9E9A5B;"/><polygon points="420,538 435,513 417,496" style="fill:#341410;stroke:#341410;"/><polygon points="653,454 713,393 673,356" style="fill:#8D955A;stroke:#8D955A;"/><polygon points="697,313 769,287 694,266" style="fill:#A5A06F;stroke:#A5A06F;"/><polygon points="490,527 532,512 484,490" style="fill:#66493A;stroke:#66493A;"/><polygon points="546,513 578,515 563,502" style="fill:#191413;stroke:#191413;"/><polygon points="565,542 578,515 546,513" style="fill:#171212;stroke:#171212;"/><polygon points="455,524 490,527 484,490" style="fill:#1A1417;stroke:#1A1417;"/><polygon points="605,96 587,79 586,98" style="fill:#A38E76;stroke:#A38E76;"/><polygon points="613,69 587,79 605,96" style="fill:#9B8368;stroke:#9B8368;"/><polygon points="435,513 455,524 450,482" style="fill:#4C251A;stroke:#4C251A;"/><polygon points="425,94 369,106 431,126" style="fill:#020201;stroke:#020201;"/><polygon points="357,83 369,106 425,94" style="fill:#000000;stroke:#000000;"/><polygon points="714,81 618,91 632,147" style="fill:#000000;stroke:#000000;"/><polygon points="539,524 565,542 546,513" style="fill:#5A5134;stroke:#5A5134;"/><polygon points="490,527 526,533 532,512" style="fill:#7D5937;stroke:#7D5937;"/><polygon points="539,544 526,533 499,566" style="fill:#71614F;stroke:#71614F;"/><polygon points="330,171 276,219 333,261" style="fill:#767E4D;stroke:#767E4D;"/><polygon points="233,356 318,392 320,372" style="fill:#A59D68;stroke:#A59D68;"/><polygon points="260,171 276,219 330,171" style="fill:#405026;stroke:#405026;"/><polygon points="467,83 430,66 452,104" style="fill:#C1A789;stroke:#C1A789;"/><polygon points="449,45 430,66 467,83" style="fill:#11100E;stroke:#11100E;"/><polygon points="430,66 428,66 425,94" style="fill:#9C7F60;stroke:#9C7F60;"/><polygon points="331,473 365,452 348,442" style="fill:#AD8D79;stroke:#AD8D79;"/><polygon points="380,475 388,515 417,496" style="fill:#29100C;stroke:#29100C;"/><polygon points="435,513 440,547 455,524" style="fill:#381510;stroke:#381510;"/><polygon points="326,421 331,473 348,442" style="fill:#BD9575;stroke:#BD9575;"/><polygon points="298,433 331,473 326,421" style="fill:#E2BA94;stroke:#E2BA94;"/><polygon points="298,433 326,421 318,392" style="fill:#F8D19E;stroke:#F8D19E;"/><polygon points="233,356 320,372 308,319" style="fill:#A39F6E;stroke:#A39F6E;"/><polygon points="276,219 257,288 333,261" style="fill:#8B9059;stroke:#8B9059;"/><polygon points="526,533 539,544 539,524" style="fill:#AD9A6A;stroke:#AD9A6A;"/><polygon points="499,566 526,533 490,527" style="fill:#433024;stroke:#433024;"/><polygon points="463,561 490,527 455,524" style="fill:#382A26;stroke:#382A26;"/><polygon points="511,34 511,97 532,97" style="fill:#1D1712;stroke:#1D1712;"/><polygon points="618,91 613,69 605,96" style="fill:#AA9076;stroke:#AA9076;"/><polygon points="613,46 613,69 694,47" style="fill:#010100;stroke:#010100;"/><polygon points="550,546 565,542 539,524" style="fill:#4F472F;stroke:#4F472F;"/><polygon points="578,515 656,512 573,465" style="fill:#8D9754;stroke:#8D9754;"/><polygon points="539,544 550,546 539,524" style="fill:#8C8559;stroke:#8C8559;"/><polygon points="388,515 420,538 417,496" style="fill:#250A07;stroke:#250A07;"/><polygon points="539,544 556,582 550,546" style="fill:#7B7154;stroke:#7B7154;"/><polygon points="331,473 352,504 380,475" style="fill:#967561;stroke:#967561;"/><polygon points="388,515 385,540 420,538" style="fill:#220C0A;stroke:#220C0A;"/><polygon points="363,529 352,504 328,528" style="fill:#967967;stroke:#967967;"/><polygon points="430,66 433,46 428,66" style="fill:#000000;stroke:#000000;"/><polygon points="428,66 357,83 425,94" style="fill:#060404;stroke:#060404;"/><polygon points="511,34 561,94 587,79" style="fill:#12100E;stroke:#12100E;"/><polygon points="420,538 440,547 435,513" style="fill:#411B16;stroke:#411B16;"/><polygon points="369,106 302,132 330,171" style="fill:#060F02;stroke:#060F02;"/><polygon points="401,0 357,83 428,66" style="fill:#000000;stroke:#000000;"/><polygon points="449,45 433,46 430,66" style="fill:#000000;stroke:#000000;"/><polygon points="357,83 302,132 369,106" style="fill:#000100;stroke:#000100;"/><polygon points="585,0 511,34 587,79" style="fill:#010101;stroke:#010101;"/><polygon points="449,45 401,0 433,46" style="fill:#000000;stroke:#000000;"/><polygon points="581,555 656,512 578,515" style="fill:#939357;stroke:#939357;"/><polygon points="653,454 743,466 713,393" style="fill:#9A9563;stroke:#9A9563;"/><polygon points="766,352 697,313 713,393" style="fill:#9E9E69;stroke:#9E9E69;"/><polygon points="772,314 769,287 697,313" style="fill:#A5A374;stroke:#A5A374;"/><polygon points="762,207 738,164 673,194" style="fill:#556836;stroke:#556836;"/><polygon points="676,161 714,81 632,147" style="fill:#030701;stroke:#030701;"/><polygon points="776,406 766,352 713,393" style="fill:#9A9E69;stroke:#9A9E69;"/><polygon points="766,352 772,314 697,313" style="fill:#9E9D67;stroke:#9E9D67;"/><polygon points="402,581 463,561 440,547" style="fill:#39281F;stroke:#39281F;"/><polygon points="440,547 463,561 455,524" style="fill:#47231B;stroke:#47231B;"/><polygon points="402,581 440,547 420,538" style="fill:#25110F;stroke:#25110F;"/><polygon points="762,207 673,194 694,266" style="fill:#888F5A;stroke:#888F5A;"/><polygon points="565,542 581,555 578,515" style="fill:#3A3230;stroke:#3A3230;"/><polygon points="550,546 581,555 565,542" style="fill:#151213;stroke:#151213;"/><polygon points="556,582 581,555 550,546" style="fill:#2F2A1E;stroke:#2F2A1E;"/><polygon points="463,561 499,566 490,527" style="fill:#1C181B;stroke:#1C181B;"/><polygon points="363,529 385,540 388,515" style="fill:#372219;stroke:#372219;"/><polygon points="769,287 762,207 694,266" style="fill:#949660;stroke:#949660;"/><polygon points="797,234 762,207 769,287" style="fill:#868F55;stroke:#868F55;"/><polygon points="352,504 363,529 388,515" style="fill:#593522;stroke:#593522;"/><polygon points="312,501 352,504 331,473" style="fill:#956F56;stroke:#956F56;"/><polygon points="613,69 613,46 587,79" style="fill:#5D4E3E;stroke:#5D4E3E;"/><polygon points="694,47 613,69 618,91" style="fill:#030202;stroke:#030202;"/><polygon points="270,465 293,471 298,433" style="fill:#B9A76E;stroke:#B9A76E;"/><polygon points="298,433 293,471 331,473" style="fill:#E6C09C;stroke:#E6C09C;"/><polygon points="276,219 231,242 257,288" style="fill:#848953;stroke:#848953;"/><polygon points="302,132 260,171 330,171" style="fill:#17280A;stroke:#17280A;"/><polygon points="257,288 233,356 308,319" style="fill:#A19E6C;stroke:#A19E6C;"/><polygon points="181,309 233,356 257,288" style="fill:#9F9F6B;stroke:#9F9F6B;"/><polygon points="210,216 231,242 276,219" style="fill:#7A844E;stroke:#7A844E;"/><polygon points="298,492 312,501 331,473" style="fill:#9A7762;stroke:#9A7762;"/><polygon points="293,471 298,492 331,473" style="fill:#D2AB8E;stroke:#D2AB8E;"/><polygon points="270,495 298,492 293,471" style="fill:#C8926F;stroke:#C8926F;"/><polygon points="233,356 270,465 298,433" style="fill:#A3A368;stroke:#A3A368;"/><polygon points="290,521 327,525 312,501" style="fill:#D4AD8F;stroke:#D4AD8F;"/><polygon points="312,501 327,525 352,504" style="fill:#845E49;stroke:#845E49;"/><polygon points="363,529 355,558 385,540" style="fill:#A4968A;stroke:#A4968A;"/><polygon points="385,540 402,581 420,538" style="fill:#18100E;stroke:#18100E;"/><polygon points="328,528 327,525 300,538" style="fill:#FBF8E2;stroke:#FBF8E2;"/><polygon points="581,555 598,577 656,512" style="fill:#88864F;stroke:#88864F;"/><polygon points="499,566 556,582 539,544" style="fill:#5C553A;stroke:#5C553A;"/><polygon points="489,620 556,582 499,566" style="fill:#757348;stroke:#757348;"/><polygon points="327,525 328,528 352,504" style="fill:#B09485;stroke:#B09485;"/><polygon points="290,521 312,501 298,492" style="fill:#BA8E74;stroke:#BA8E74;"/><polygon points="656,512 743,466 653,454" style="fill:#899453;stroke:#899453;"/><polygon points="721,540 743,466 656,512" style="fill:#909657;stroke:#909657;"/><polygon points="836,295 822,287 772,314" style="fill:#B0A67A;stroke:#B0A67A;"/><polygon points="743,466 776,406 713,393" style="fill:#999D64;stroke:#999D64;"/><polygon points="328,528 345,544 363,529" style="fill:#EFE9D9;stroke:#EFE9D9;"/><polygon points="463,561 489,620 499,566" style="fill:#4E4F34;stroke:#4E4F34;"/><polygon points="556,582 598,577 581,555" style="fill:#3A3129;stroke:#3A3129;"/><polygon points="302,132 198,114 260,171" style="fill:#061202;stroke:#061202;"/><polygon points="357,83 298,85 302,132" style="fill:#000100;stroke:#000100;"/><polygon points="335,0 298,85 357,83" style="fill:#020301;stroke:#020301;"/><polygon points="511,34 483,0 449,45" style="fill:#000000;stroke:#000000;"/><polygon points="433,46 401,0 428,66" style="fill:#000000;stroke:#000000;"/><polygon points="585,0 483,0 511,34" style="fill:#000000;stroke:#000000;"/><polygon points="762,207 808,171 738,164" style="fill:#4E6130;stroke:#4E6130;"/><polygon points="822,287 797,234 769,287" style="fill:#9A9B68;stroke:#9A9B68;"/><polygon points="822,287 769,287 772,314" style="fill:#ADA67A;stroke:#ADA67A;"/><polygon points="738,164 714,81 676,161" style="fill:#040902;stroke:#040902;"/><polygon points="613,46 585,0 587,79" style="fill:#050404;stroke:#050404;"/><polygon points="778,81 714,81 738,164" style="fill:#060901;stroke:#060901;"/><polygon points="333,578 355,558 345,544" style="fill:#FBF4DA;stroke:#FBF4DA;"/><polygon points="345,544 355,558 363,529" style="fill:#F5F1DF;stroke:#F5F1DF;"/><polygon points="318,562 345,544 328,528" style="fill:#FCF9E0;stroke:#FCF9E0;"/><polygon points="355,558 380,571 385,540" style="fill:#D5C9B8;stroke:#D5C9B8;"/><polygon points="380,571 402,581 385,540" style="fill:#9B8C83;stroke:#9B8C83;"/><polygon points="584,620 603,583 598,577" style="fill:#847854;stroke:#847854;"/><polygon points="598,577 603,583 656,512" style="fill:#8E8A5E;stroke:#8E8A5E;"/><polygon points="584,620 598,577 556,582" style="fill:#79714C;stroke:#79714C;"/><polygon points="260,171 210,216 276,219" style="fill:#616D3C;stroke:#616D3C;"/><polygon points="231,242 181,309 257,288" style="fill:#91955C;stroke:#91955C;"/><polygon points="177,177 210,216 260,171" style="fill:#434F27;stroke:#434F27;"/><polygon points="650,0 585,0 613,46" style="fill:#000000;stroke:#000000;"/><polygon points="270,465 270,495 293,471" style="fill:#D2A17A;stroke:#D2A17A;"/><polygon points="231,472 270,495 270,465" style="fill:#DBAE84;stroke:#DBAE84;"/><polygon points="270,495 290,521 298,492" style="fill:#E2B58F;stroke:#E2B58F;"/><polygon points="714,81 694,47 618,91" style="fill:#010100;stroke:#010100;"/><polygon points="483,0 401,0 449,45" style="fill:#000100;stroke:#000100;"/><polygon points="285,547 300,538 290,521" style="fill:#F2D0AA;stroke:#F2D0AA;"/><polygon points="290,521 300,538 327,525" style="fill:#F6E1C1;stroke:#F6E1C1;"/><polygon points="333,578 382,597 380,571" style="fill:#F7E8D1;stroke:#F7E8D1;"/><polygon points="380,571 382,597 402,581" style="fill:#ECDFCC;stroke:#ECDFCC;"/><polygon points="836,295 772,314 766,352" style="fill:#A19F6D;stroke:#A19F6D;"/><polygon points="743,466 784,448 776,406" style="fill:#969362;stroke:#969362;"/><polygon points="863,317 836,295 766,352" style="fill:#9E9C6D;stroke:#9E9C6D;"/><polygon points="802,484 784,448 743,466" style="fill:#878E51;stroke:#878E51;"/><polygon points="407,620 489,620 463,561" style="fill:#888753;stroke:#888753;"/><polygon points="407,620 463,561 402,581" style="fill:#5E5F39;stroke:#5E5F39;"/><polygon points="233,356 231,472 270,465" style="fill:#9E9E68;stroke:#9E9E68;"/><polygon points="141,247 181,309 231,242" style="fill:#8F9259;stroke:#8F9259;"/><polygon points="333,578 380,571 355,558" style="fill:#F9EFD6;stroke:#F9EFD6;"/><polygon points="300,538 318,562 328,528" style="fill:#FBF3D6;stroke:#FBF3D6;"/><polygon points="714,586 721,540 656,512" style="fill:#9A995F;stroke:#9A995F;"/><polygon points="218,480 231,472 181,447" style="fill:#939653;stroke:#939653;"/><polygon points="270,495 255,516 290,521" style="fill:#EEBF92;stroke:#EEBF92;"/><polygon points="300,538 297,571 318,562" style="fill:#F5DBB9;stroke:#F5DBB9;"/><polygon points="797,234 808,171 762,207" style="fill:#707D4B;stroke:#707D4B;"/><polygon points="714,81 738,0 694,47" style="fill:#010100;stroke:#010100;"/><polygon points="870,233 808,171 797,234" style="fill:#78844F;stroke:#78844F;"/><polygon points="297,571 333,578 318,562" style="fill:#F5DEC2;stroke:#F5DEC2;"/><polygon points="318,562 333,578 345,544" style="fill:#FAEED1;stroke:#FAEED1;"/><polygon points="694,47 650,0 613,46" style="fill:#040401;stroke:#040401;"/><polygon points="822,287 870,233 797,234" style="fill:#949560;stroke:#949560;"/><polygon points="863,317 766,352 776,406" style="fill:#A0A070;stroke:#A0A070;"/><polygon points="230,505 255,516 270,495" style="fill:#E4AB7E;stroke:#E4AB7E;"/><polygon points="603,583 652,620 656,512" style="fill:#959361;stroke:#959361;"/><polygon points="489,620 584,620 556,582" style="fill:#A09966;stroke:#A09966;"/><polygon points="255,516 285,547 290,521" style="fill:#F3C798;stroke:#F3C798;"/><polygon points="382,597 407,620 402,581" style="fill:#A7A280;stroke:#A7A280;"/><polygon points="330,620 407,620 382,597" style="fill:#8B8558;stroke:#8B8558;"/><polygon points="231,472 230,505 270,495" style="fill:#F3C79C;stroke:#F3C79C;"/><polygon points="274,563 297,571 285,547" style="fill:#F2D5B6;stroke:#F2D5B6;"/><polygon points="180,399 231,472 233,356" style="fill:#9C9E66;stroke:#9C9E66;"/><polygon points="181,309 180,399 233,356" style="fill:#A19F6C;stroke:#A19F6C;"/><polygon points="401,0 335,0 357,83" style="fill:#010100;stroke:#010100;"/><polygon points="198,114 177,177 260,171" style="fill:#142009;stroke:#142009;"/><polygon points="333,578 335,601 382,597" style="fill:#D7BFA4;stroke:#D7BFA4;"/><polygon points="285,547 297,571 300,538" style="fill:#F6DEBD;stroke:#F6DEBD;"/><polygon points="274,563 285,547 260,564" style="fill:#E5B792;stroke:#E5B792;"/><polygon points="218,480 230,505 231,472" style="fill:#F0CC9F;stroke:#F0CC9F;"/><polygon points="808,171 778,81 738,164" style="fill:#0C1505;stroke:#0C1505;"/><polygon points="694,47 738,0 650,0" style="fill:#000000;stroke:#000000;"/><polygon points="297,571 335,601 333,578" style="fill:#E0C2A4;stroke:#E0C2A4;"/><polygon points="210,216 141,247 231,242" style="fill:#838A53;stroke:#838A53;"/><polygon points="181,309 126,349 180,399" style="fill:#92965C;stroke:#92965C;"/><polygon points="198,114 302,132 298,85" style="fill:#000200;stroke:#000200;"/><polygon points="889,391 863,317 776,406" style="fill:#9A9A67;stroke:#9A9A67;"/><polygon points="721,540 802,484 743,466" style="fill:#8E9756;stroke:#8E9756;"/><polygon points="283,594 330,620 335,601" style="fill:#796D42;stroke:#796D42;"/><polygon points="242,537 285,547 255,516" style="fill:#E7B081;stroke:#E7B081;"/><polygon points="721,540 817,522 802,484" style="fill:#9D9C5F;stroke:#9D9C5F;"/><polygon points="584,620 652,620 603,583" style="fill:#959060;stroke:#959060;"/><polygon points="230,505 242,537 255,516" style="fill:#E8B184;stroke:#E8B184;"/><polygon points="200,526 242,537 230,505" style="fill:#D99F71;stroke:#D99F71;"/><polygon points="207,496 230,505 218,480" style="fill:#F6D1A6;stroke:#F6D1A6;"/><polygon points="652,620 714,586 656,512" style="fill:#9E9964;stroke:#9E9964;"/><polygon points="180,399 181,447 231,472" style="fill:#959B5D;stroke:#959B5D;"/><polygon points="258,38 198,114 298,85" style="fill:#010100;stroke:#010100;"/><polygon points="335,0 258,38 298,85" style="fill:#010401;stroke:#010401;"/><polygon points="836,295 870,233 822,287" style="fill:#A49E74;stroke:#A49E74;"/><polygon points="863,103 796,36 778,81" style="fill:#000000;stroke:#000000;"/><polygon points="861,442 776,406 784,448" style="fill:#8E9658;stroke:#8E9658;"/><polygon points="181,484 207,496 218,480" style="fill:#AD9969;stroke:#AD9969;"/><polygon points="242,537 260,564 285,547" style="fill:#DAA276;stroke:#DAA276;"/><polygon points="274,563 283,594 297,571" style="fill:#E5C4A7;stroke:#E5C4A7;"/><polygon points="248,578 260,564 242,537" style="fill:#B9845B;stroke:#B9845B;"/><polygon points="135,213 210,216 177,177" style="fill:#636B3D;stroke:#636B3D;"/><polygon points="135,213 141,247 210,216" style="fill:#7E8651;stroke:#7E8651;"/><polygon points="180,399 130,463 181,447" style="fill:#92995A;stroke:#92995A;"/><polygon points="335,601 330,620 382,597" style="fill:#7C714E;stroke:#7C714E;"/><polygon points="283,594 335,601 297,571" style="fill:#C5AA8D;stroke:#C5AA8D;"/><polygon points="903,248 870,233 836,295" style="fill:#9E9C6C;stroke:#9E9C6C;"/><polygon points="260,564 283,594 274,563" style="fill:#D7AD8F;stroke:#D7AD8F;"/><polygon points="248,578 283,594 260,564" style="fill:#A9825D;stroke:#A9825D;"/><polygon points="224,574 248,578 242,537" style="fill:#A16C48;stroke:#A16C48;"/><polygon points="181,447 181,484 218,480" style="fill:#969B5F;stroke:#969B5F;"/><polygon points="130,463 181,484 181,447" style="fill:#8D9555;stroke:#8D9555;"/><polygon points="778,81 738,0 714,81" style="fill:#010100;stroke:#010100;"/><polygon points="796,36 738,0 778,81" style="fill:#000000;stroke:#000000;"/><polygon points="141,247 126,254 181,309" style="fill:#979761;stroke:#979761;"/><polygon points="119,184 135,213 177,177" style="fill:#34441C;stroke:#34441C;"/><polygon points="283,594 264,620 330,620" style="fill:#6F7439;stroke:#6F7439;"/><polygon points="200,526 230,505 207,496" style="fill:#E2AD7E;stroke:#E2AD7E;"/><polygon points="135,213 126,254 141,247" style="fill:#8A8D59;stroke:#8A8D59;"/><polygon points="181,484 200,526 207,496" style="fill:#C2A273;stroke:#C2A273;"/><polygon points="126,254 126,349 181,309" style="fill:#959960;stroke:#959960;"/><polygon points="802,484 861,442 784,448" style="fill:#989864;stroke:#989864;"/><polygon points="863,317 903,248 836,295" style="fill:#9B9568;stroke:#9B9568;"/><polygon points="874,493 861,442 802,484" style="fill:#90965B;stroke:#90965B;"/><polygon points="807,579 817,522 721,540" style="fill:#A59A69;stroke:#A59A69;"/><polygon points="863,103 778,81 808,171" style="fill:#030702;stroke:#030702;"/><polygon points="870,233 871,159 808,171" style="fill:#556735;stroke:#556735;"/><polygon points="200,526 210,556 242,537" style="fill:#BD855A;stroke:#BD855A;"/><polygon points="111,589 210,556 200,526" style="fill:#9D8F65;stroke:#9D8F65;"/><polygon points="119,516 200,526 181,484" style="fill:#9B965C;stroke:#9B965C;"/><polygon points="210,556 224,574 242,537" style="fill:#A7714C;stroke:#A7714C;"/><polygon points="248,578 264,620 283,594" style="fill:#61582D;stroke:#61582D;"/><polygon points="861,442 889,391 776,406" style="fill:#90985C;stroke:#90985C;"/><polygon points="870,233 926,194 871,159" style="fill:#5D6E3B;stroke:#5D6E3B;"/><polygon points="150,59 145,87 198,114" style="fill:#000000;stroke:#000000;"/><polygon points="145,87 119,184 177,177" style="fill:#091304;stroke:#091304;"/><polygon points="335,0 241,0 258,38" style="fill:#010100;stroke:#010100;"/><polygon points="714,586 807,579 721,540" style="fill:#A9A072;stroke:#A9A072;"/><polygon points="652,620 737,620 714,586" style="fill:#A59D68;stroke:#A59D68;"/><polygon points="917,275 903,248 863,317" style="fill:#91915F;stroke:#91915F;"/><polygon points="145,87 177,177 198,114" style="fill:#020801;stroke:#020801;"/><polygon points="53,198 48,263 126,254" style="fill:#787F4B;stroke:#787F4B;"/><polygon points="61,360 108,404 126,349" style="fill:#989961;stroke:#989961;"/><polygon points="889,391 906,337 863,317" style="fill:#969666;stroke:#969666;"/><polygon points="224,574 264,620 248,578" style="fill:#5D5028;stroke:#5D5028;"/><polygon points="914,151 863,103 871,159" style="fill:#071203;stroke:#071203;"/><polygon points="871,159 863,103 808,171" style="fill:#0F2008;stroke:#0F2008;"/><polygon points="108,404 130,463 180,399" style="fill:#979A5F;stroke:#979A5F;"/><polygon points="210,556 177,620 224,574" style="fill:#705E3C;stroke:#705E3C;"/><polygon points="108,404 180,399 126,349" style="fill:#9B9B63;stroke:#9B9B63;"/><polygon points="74,328 126,349 126,254" style="fill:#899157;stroke:#899157;"/><polygon points="906,337 917,275 863,317" style="fill:#9D986C;stroke:#9D986C;"/><polygon points="903,248 926,194 870,233" style="fill:#868B58;stroke:#868B58;"/><polygon points="817,522 874,493 802,484" style="fill:#959A60;stroke:#959A60;"/><polygon points="861,442 942,396 889,391" style="fill:#8A9459;stroke:#8A9459;"/><polygon points="737,620 807,579 714,586" style="fill:#9E9962;stroke:#9E9962;"/><polygon points="150,59 198,114 258,38" style="fill:#010100;stroke:#010100;"/><polygon points="910,568 874,493 817,522" style="fill:#A09B69;stroke:#A09B69;"/><polygon points="889,391 942,396 906,337" style="fill:#8F975D;stroke:#8F975D;"/><polygon points="53,198 135,213 119,184" style="fill:#3D4C22;stroke:#3D4C22;"/><polygon points="170,0 150,59 258,38" style="fill:#000000;stroke:#000000;"/><polygon points="61,360 74,328 0,345" style="fill:#8D925E;stroke:#8D925E;"/><polygon points="48,263 74,328 126,254" style="fill:#8E8E58;stroke:#8E8E58;"/><polygon points="59,484 119,516 130,463" style="fill:#85904E;stroke:#85904E;"/><polygon points="863,103 820,0 796,36" style="fill:#000100;stroke:#000100;"/><polygon points="796,36 820,0 738,0" style="fill:#000000;stroke:#000000;"/><polygon points="941,238 926,194 903,248" style="fill:#848855;stroke:#848855;"/><polygon points="863,103 888,0 820,0" style="fill:#010100;stroke:#010100;"/><polygon points="926,194 914,151 871,159" style="fill:#364620;stroke:#364620;"/><polygon points="968,165 933,97 914,151" style="fill:#091105;stroke:#091105;"/><polygon points="917,275 941,238 903,248" style="fill:#7E854C;stroke:#7E854C;"/><polygon points="992,257 941,238 917,275" style="fill:#838651;stroke:#838651;"/><polygon points="992,325 917,275 906,337" style="fill:#9A9868;stroke:#9A9868;"/><polygon points="59,484 130,463 108,404" style="fill:#869150;stroke:#869150;"/><polygon points="130,463 119,516 181,484" style="fill:#939856;stroke:#939856;"/><polygon points="224,574 177,620 264,620" style="fill:#7B774A;stroke:#7B774A;"/><polygon points="737,620 812,620 807,579" style="fill:#979455;stroke:#979455;"/><polygon points="910,568 914,502 874,493" style="fill:#A39B6C;stroke:#A39B6C;"/><polygon points="241,0 170,0 258,38" style="fill:#000100;stroke:#000100;"/><polygon points="914,502 861,442 874,493" style="fill:#858E4F;stroke:#858E4F;"/><polygon points="950,476 942,396 861,442" style="fill:#8F9356;stroke:#8F9356;"/><polygon points="74,328 61,360 126,349" style="fill:#899354;stroke:#899354;"/><polygon points="126,254 135,213 53,198" style="fill:#717947;stroke:#717947;"/><polygon points="910,568 817,522 807,579" style="fill:#A49B6C;stroke:#A49B6C;"/><polygon points="53,198 119,184 66,90" style="fill:#081203;stroke:#081203;"/><polygon points="119,184 145,87 66,90" style="fill:#010500;stroke:#010500;"/><polygon points="111,589 177,620 210,556" style="fill:#8E845B;stroke:#8E845B;"/><polygon points="66,90 145,87 77,41" style="fill:#000000;stroke:#000000;"/><polygon points="968,165 914,151 926,194" style="fill:#37491F;stroke:#37491F;"/><polygon points="914,151 933,97 863,103" style="fill:#000200;stroke:#000200;"/><polygon points="61,360 36,393 108,404" style="fill:#989565;stroke:#989565;"/><polygon points="119,516 111,589 200,526" style="fill:#A19E6A;stroke:#A19E6A;"/><polygon points="0,345 36,393 61,360" style="fill:#8F8F5F;stroke:#8F8F5F;"/><polygon points="0,345 74,328 48,263" style="fill:#8F8C5B;stroke:#8F8C5B;"/><polygon points="992,181 926,194 941,238" style="fill:#777B4E;stroke:#777B4E;"/><polygon points="914,502 950,476 861,442" style="fill:#8D8F57;stroke:#8D8F57;"/><polygon points="938,541 950,476 914,502" style="fill:#9A9666;stroke:#9A9666;"/><polygon points="992,181 968,165 926,194" style="fill:#4B5A2C;stroke:#4B5A2C;"/><polygon points="992,325 906,337 942,396" style="fill:#929162;stroke:#929162;"/><polygon points="933,97 912,39 863,103" style="fill:#000000;stroke:#000000;"/><polygon points="992,24 912,39 933,97" style="fill:#000100;stroke:#000100;"/><polygon points="36,393 59,484 108,404" style="fill:#8A8D55;stroke:#8A8D55;"/><polygon points="912,39 888,0 863,103" style="fill:#000000;stroke:#000000;"/><polygon points="77,41 145,87 150,59" style="fill:#000000;stroke:#000000;"/><polygon points="902,620 910,568 807,579" style="fill:#9A9364;stroke:#9A9364;"/><polygon points="992,427 992,325 942,396" style="fill:#878B57;stroke:#878B57;"/><polygon points="992,325 992,257 917,275" style="fill:#949064;stroke:#949064;"/><polygon points="105,590 111,589 66,555" style="fill:#9F9C6F;stroke:#9F9C6F;"/><polygon points="111,589 80,620 177,620" style="fill:#8D8751;stroke:#8D8751;"/><polygon points="66,555 111,589 119,516" style="fill:#8C8E5A;stroke:#8C8E5A;"/><polygon points="910,568 938,541 914,502" style="fill:#979262;stroke:#979262;"/><polygon points="950,476 992,427 942,396" style="fill:#84914F;stroke:#84914F;"/><polygon points="83,0 77,41 150,59" style="fill:#000000;stroke:#000000;"/><polygon points="968,165 992,91 933,97" style="fill:#030402;stroke:#030402;"/><polygon points="992,257 992,181 941,238" style="fill:#7A8050;stroke:#7A8050;"/><polygon points="992,495 992,427 950,476" style="fill:#808952;stroke:#808952;"/><polygon points="53,198 0,265 48,263" style="fill:#6E7741;stroke:#6E7741;"/><polygon points="36,393 0,404 59,484" style="fill:#828650;stroke:#828650;"/><polygon points="0,166 0,265 53,198" style="fill:#424F27;stroke:#424F27;"/><polygon points="0,166 53,198 66,90" style="fill:#050E02;stroke:#050E02;"/><polygon points="0,265 0,345 48,263" style="fill:#818753;stroke:#818753;"/><polygon points="59,484 66,555 119,516" style="fill:#92965A;stroke:#92965A;"/><polygon points="0,504 66,555 59,484" style="fill:#8B8F55;stroke:#8B8F55;"/><polygon points="938,541 992,495 950,476" style="fill:#8E8B5C;stroke:#8E8B5C;"/><polygon points="910,568 961,552 938,541" style="fill:#898256;stroke:#898256;"/><polygon points="812,620 902,620 807,579" style="fill:#9C9764;stroke:#9C9764;"/><polygon points="0,103 0,166 66,90" style="fill:#000200;stroke:#000200;"/><polygon points="170,0 83,0 150,59" style="fill:#000000;stroke:#000000;"/><polygon points="0,345 0,404 36,393" style="fill:#8D8C5C;stroke:#8D8C5C;"/><polygon points="0,103 66,90 0,10" style="fill:#000000;stroke:#000000;"/><polygon points="992,578 961,552 984,620" style="fill:#93905F;stroke:#93905F;"/><polygon points="961,552 992,495 938,541" style="fill:#8A8358;stroke:#8A8358;"/><polygon points="992,181 992,91 968,165" style="fill:#19210F;stroke:#19210F;"/><polygon points="912,39 969,0 888,0" style="fill:#000000;stroke:#000000;"/><polygon points="105,590 80,620 111,589" style="fill:#9B9262;stroke:#9B9262;"/><polygon points="66,555 80,620 105,590" style="fill:#9E986C;stroke:#9E986C;"/><polygon points="11,620 80,620 66,555" style="fill:#A39A70;stroke:#A39A70;"/><polygon points="0,10 66,90 77,41" style="fill:#000000;stroke:#000000;"/><polygon points="0,404 0,504 59,484" style="fill:#7B8449;stroke:#7B8449;"/><polygon points="992,24 969,0 912,39" style="fill:#000000;stroke:#000000;"/><polygon points="992,91 992,24 933,97" style="fill:#000000;stroke:#000000;"/><polygon points="961,552 992,578 992,495" style="fill:#928B60;stroke:#928B60;"/><polygon points="984,620 961,552 910,568" style="fill:#8A8357;stroke:#8A8357;"/><polygon points="992,24 992,0 969,0" style="fill:#000000;stroke:#000000;"/><polygon points="83,0 12,0 77,41" style="fill:#000000;stroke:#000000;"/><polygon points="902,620 984,620 910,568" style="fill:#8A865B;stroke:#8A865B;"/><polygon points="12,0 0,10 77,41" style="fill:#000000;stroke:#000000;"/><polygon points="0,504 0,587 66,555" style="fill:#8A8A55;stroke:#8A8A55;"/><polygon points="984,620 992,620 992,578" style="fill:#89825C;stroke:#89825C;"/><polygon points="12,0 0,0 0,10" style="fill:#000000;stroke:#000000;"/><polygon points="0,587 11,620 66,555" style="fill:#8D8C5A;stroke:#8D8C5A;"/><polygon points="0,587 0,620 11,620" style="fill:#817C4F;stroke:#817C4F;"/></g></svg>